<svg width="20" height="20" viewBox="0 0 20 20" fill="none" xmlns="http://www.w3.org/2000/svg">
<path fill-rule="evenodd" clip-rule="evenodd" d="M3.62955 4.2171C3.63121 4.2171 3.58955 4.26043 3.53705 4.3121C3.33538 4.50793 2.91788 4.91543 2.91367 5.76793C2.90705 6.96043 3.69121 9.1746 7.46705 12.9496C11.2254 16.7063 13.4362 17.4996 14.6312 17.4996H14.6487C15.5012 17.4954 15.9079 17.0771 16.1045 16.8763C16.1645 16.8146 16.2129 16.7696 16.247 16.7413C17.077 15.9063 17.502 15.2846 17.4979 14.8863C17.492 14.4796 16.9862 13.9988 16.287 13.3338C16.0645 13.1221 15.8229 12.8921 15.5679 12.6371C14.907 11.9779 14.5795 12.0904 13.8595 12.3438C12.8637 12.6929 11.497 13.1679 9.37371 11.0438C7.24705 8.91877 7.72288 7.55377 8.07121 6.55793C8.32288 5.83793 8.43788 5.5096 7.77621 4.84793C7.51705 4.5896 7.28455 4.3446 7.07038 4.1196C6.40955 3.4246 5.93288 2.9221 5.52871 2.91627H5.52205C5.12288 2.91627 4.50288 3.34293 3.62538 4.22043C3.62788 4.21793 3.62871 4.2171 3.62955 4.2171ZM14.632 18.7496C12.5554 18.7496 9.84788 17.0963 6.58371 13.8338C3.30705 10.5579 1.65121 7.8421 1.66364 5.76127C1.67121 4.38627 2.39205 3.6821 2.66288 3.41793C2.67705 3.40043 2.72538 3.35293 2.74205 3.33627C3.93705 2.14043 4.74288 1.6571 5.54455 1.66614C6.47538 1.67877 7.13788 2.37543 7.97621 3.25793C8.18371 3.47627 8.40871 3.71377 8.65955 3.96377C9.87621 5.18043 9.52955 6.17293 9.25121 6.9696C8.94788 7.83877 8.68538 8.58877 10.257 10.1604C11.8304 11.7321 12.5804 11.4696 13.4462 11.1638C14.2437 10.8854 15.2337 10.5371 16.452 11.7538C16.6987 12.0004 16.9329 12.2229 17.1487 12.4288C18.0354 13.2713 18.7354 13.9371 18.7472 14.8704C18.757 15.6663 18.2737 16.4771 17.0804 17.6713L16.552 17.3129L16.9987 17.7496C16.7345 18.0204 16.0312 18.7421 14.6554 18.7496H14.632Z" fill="white"/>
</svg>
