<svg width="20" height="20" viewBox="0 0 20 20" fill="none" xmlns="http://www.w3.org/2000/svg">
<path d="M10.0001 17.4792L9.14592 16.7083C7.67369 15.3611 6.45841 14.1979 5.50008 13.2187C4.54175 12.2396 3.77786 11.3646 3.20841 10.5937C2.63897 9.82291 2.23966 9.12499 2.0105 8.49999C1.78133 7.87499 1.66675 7.24305 1.66675 6.60416C1.66675 5.35416 2.08689 4.30902 2.92716 3.46874C3.76744 2.62847 4.80564 2.20833 6.04175 2.20833C6.83341 2.20833 7.56605 2.39583 8.23966 2.77083C8.91328 3.14583 9.50008 3.68749 10.0001 4.39583C10.5834 3.64583 11.2015 3.09374 11.8542 2.73958C12.507 2.38541 13.2084 2.20833 13.9584 2.20833C15.1945 2.20833 16.2327 2.62847 17.073 3.46874C17.9133 4.30902 18.3334 5.35416 18.3334 6.60416C18.3334 7.24305 18.2188 7.87499 17.9897 8.49999C17.7605 9.12499 17.3612 9.82291 16.7917 10.5937C16.2223 11.3646 15.4584 12.2396 14.5001 13.2187C13.5417 14.1979 12.3265 15.3611 10.8542 16.7083L10.0001 17.4792ZM10.0001 15.8333C11.4029 14.5417 12.5591 13.434 13.4688 12.5104C14.3786 11.5868 15.1008 10.7778 15.6355 10.0833C16.1702 9.38888 16.5452 8.77083 16.7605 8.22916C16.9758 7.68749 17.0834 7.14583 17.0834 6.60416C17.0834 5.68749 16.7917 4.93402 16.2084 4.34374C15.6251 3.75347 14.8751 3.45833 13.9584 3.45833C13.2501 3.45833 12.5904 3.67708 11.9792 4.11458C11.3681 4.55208 10.8751 5.16666 10.5001 5.95833H9.47925C9.11814 5.18055 8.63203 4.56944 8.02091 4.12499C7.4098 3.68055 6.75008 3.45833 6.04175 3.45833C5.12508 3.45833 4.37508 3.75347 3.79175 4.34374C3.20841 4.93402 2.91675 5.68749 2.91675 6.60416C2.91675 7.14583 3.02439 7.69097 3.23966 8.23958C3.45494 8.78819 3.82994 9.41319 4.36466 10.1146C4.89939 10.816 5.62508 11.625 6.54175 12.5417C7.45841 13.4583 8.61119 14.5556 10.0001 15.8333Z" fill="#2F3137"/>
</svg>
