<svg width="17" height="17" viewBox="0 0 17 17" fill="none" xmlns="http://www.w3.org/2000/svg">
<path d="M15.8667 0H1.13333C0.832755 0 0.544487 0.119404 0.331946 0.331946C0.119404 0.544487 0 0.832755 0 1.13333V15.8667C0 16.1672 0.119404 16.4555 0.331946 16.6681C0.544487 16.8806 0.832755 17 1.13333 17H15.8667C16.1672 17 16.4555 16.8806 16.6681 16.6681C16.8806 16.4555 17 16.1672 17 15.8667V1.13333C17 0.832755 16.8806 0.544487 16.6681 0.331946C16.4555 0.119404 16.1672 0 15.8667 0ZM5.03597 14.5033H2.4786V6.375H5.03597V14.5033ZM3.757 5.25923C3.463 5.25834 3.17585 5.17034 2.93183 5.00634C2.68781 4.84235 2.49786 4.60972 2.38597 4.33784C2.27408 4.06596 2.24526 3.76701 2.30317 3.47877C2.36108 3.19052 2.5031 2.9259 2.71131 2.71832C2.91952 2.51074 3.18458 2.36952 3.473 2.31249C3.76142 2.25546 4.06028 2.28518 4.33182 2.3979C4.60336 2.51062 4.83541 2.70128 4.99866 2.9458C5.1619 3.19031 5.24903 3.47773 5.24903 3.77173C5.24911 3.96748 5.21054 4.16131 5.13552 4.34211C5.06051 4.52291 4.95054 4.68713 4.81192 4.82533C4.6733 4.96353 4.50875 5.073 4.32772 5.14746C4.14669 5.22192 3.95274 5.2599 3.757 5.25923ZM14.5186 14.5033H12.0133V10.5717C12.0133 9.61577 12.0133 8.44673 10.6817 8.44673C9.35 8.44673 9.18963 9.45653 9.18963 10.5185V14.5565H6.68667V6.375H9.0304V7.49077H9.08367C9.32539 7.07285 9.67616 6.7285 10.0985 6.49454C10.5208 6.26058 10.9987 6.14581 11.4812 6.1625C14.0386 6.1625 14.518 7.8625 14.518 10.0408L14.5186 14.5033Z" fill="white"/>
</svg>
