<svg width="20" height="16" viewBox="0 0 20 16" fill="none" xmlns="http://www.w3.org/2000/svg">
<path d="M19.499 1.88308C18.77 2.1868 18.0411 2.42978 17.1907 2.49052C18.0411 2.00457 18.6485 1.21489 18.9523 0.303722C18.1626 0.789678 17.3122 1.0934 16.401 1.27563C15.6721 0.485956 14.6394 0 13.546 0C11.3592 0 9.53688 1.76159 9.53688 4.00913C9.53688 4.31286 9.59762 4.61658 9.65837 4.9203C6.31742 4.73807 3.40169 3.15871 1.39712 0.728933C1.03266 1.33638 0.850422 2.00457 0.850422 2.7335C0.850422 4.13062 1.57936 5.34551 2.61201 6.07444C1.94382 6.07444 1.33638 5.89221 0.789678 5.58849V5.64923C0.789678 7.59306 2.1868 9.17241 4.00913 9.53688C3.64467 9.59762 3.34094 9.65837 2.97648 9.65837C2.7335 9.65837 2.49052 9.65837 2.24754 9.59762C2.7335 11.177 4.25211 12.3311 5.95296 12.3919C4.61658 13.4853 2.85499 14.0927 0.971911 14.0927C0.668189 14.0927 0.303722 14.0927 0 14.032C1.82233 15.1254 3.94839 15.7936 6.19593 15.7936C13.546 15.7936 17.5551 9.71911 17.5551 4.43434C17.5551 4.25211 17.5551 4.06988 17.5551 3.94839C18.2841 3.34094 18.9523 2.67276 19.499 1.88308Z" fill="white"/>
</svg>
