<svg width="20" height="17" viewBox="0 0 20 17" fill="none" xmlns="http://www.w3.org/2000/svg">
<path d="M19.469 0.336745C19.4534 0.264749 19.4189 0.198203 19.3691 0.1439C19.3193 0.0895978 19.2559 0.0494836 19.1856 0.0276529C18.9294 -0.0228687 18.6644 -0.00392411 18.418 0.0825212C18.418 0.0825212 1.32529 6.22595 0.349246 6.90632C0.138307 7.05263 0.0681977 7.13737 0.0334477 7.23797C-0.135425 7.72203 0.390092 7.9354 0.390092 7.9354L4.79541 9.37113C4.86983 9.38399 4.94621 9.3794 5.01854 9.35771C6.02081 8.7249 15.1015 2.99054 15.6264 2.7979C15.7087 2.7729 15.7697 2.7979 15.7563 2.85886C15.5417 3.5941 7.69978 10.563 7.65649 10.6057C7.63545 10.6229 7.61892 10.645 7.6083 10.6701C7.59768 10.6952 7.5933 10.7224 7.59553 10.7495L7.18584 15.0482C7.18584 15.0482 7.01392 16.3894 8.35271 15.0482C9.30194 14.0977 10.2128 13.3113 10.6694 12.929C12.1844 13.9746 13.8146 15.1311 14.5175 15.7334C14.6354 15.848 14.7752 15.9376 14.9286 15.9969C15.0819 16.0562 15.2457 16.0839 15.41 16.0785C16.0806 16.0529 16.2635 15.3195 16.2635 15.3195C16.2635 15.3195 19.3776 2.78814 19.4825 1.10856C19.4922 0.943955 19.5062 0.838485 19.5075 0.7257C19.513 0.594887 19.5001 0.463945 19.469 0.336745Z" fill="white"/>
</svg>
