<svg width="19" height="20" viewBox="0 0 19 20" fill="none" xmlns="http://www.w3.org/2000/svg">
<path d="M14.9392 4.59825C13.5144 3.16587 11.6173 2.3811 9.59824 2.3811C5.43824 2.3811 2.04777 5.77158 2.04777 9.93158C2.04777 11.2649 2.39824 12.5602 3.05348 13.703L1.98682 17.6192L5.98682 16.5678C7.09158 17.1697 8.33348 17.4897 9.59824 17.4897C13.7582 17.4897 17.1487 14.0992 17.1487 9.9392C17.1487 7.92015 16.364 6.02301 14.9392 4.59825ZM9.59824 16.2097C8.47062 16.2097 7.36586 15.9049 6.39824 15.3335L6.16967 15.1963L3.79253 15.8211L4.42491 13.5049L4.27253 13.2687C3.64777 12.2706 3.31253 11.1125 3.31253 9.93158C3.31253 6.47253 6.13158 3.65348 9.59062 3.65348C11.2668 3.65348 12.844 4.30872 14.0249 5.49729C15.2135 6.68587 15.8611 8.26301 15.8611 9.9392C15.8763 13.3982 13.0573 16.2097 9.59824 16.2097ZM13.0421 11.5163C12.8516 11.4249 11.9221 10.9678 11.7544 10.8992C11.5792 10.8382 11.4573 10.8078 11.3278 10.9906C11.1982 11.1811 10.8401 11.6078 10.7335 11.7297C10.6268 11.8592 10.5125 11.8744 10.3221 11.7754C10.1316 11.684 9.52205 11.4782 8.80586 10.8382C8.24205 10.3354 7.86872 9.71825 7.75443 9.52777C7.64777 9.33729 7.7392 9.23825 7.83824 9.1392C7.92205 9.05539 8.02872 8.91825 8.12015 8.81158C8.21158 8.70491 8.24967 8.6211 8.31063 8.4992C8.37158 8.36967 8.3411 8.26301 8.29539 8.17158C8.24967 8.08015 7.86872 7.15063 7.71634 6.76967C7.56396 6.40396 7.40396 6.44967 7.28967 6.44206C7.17539 6.44206 7.05348 6.44206 6.92396 6.44206C6.79443 6.44206 6.59634 6.48777 6.4211 6.67825C6.25348 6.86872 5.76586 7.32587 5.76586 8.25539C5.76586 9.18491 6.44396 10.084 6.53539 10.2059C6.62682 10.3354 7.86872 12.2402 9.75824 13.0554C10.2078 13.2535 10.5582 13.3678 10.8325 13.4516C11.2821 13.5963 11.6935 13.5735 12.0211 13.5278C12.3868 13.4744 13.1411 13.0706 13.2935 12.6287C13.4535 12.1868 13.4535 11.8135 13.4001 11.7297C13.3468 11.6459 13.2325 11.6078 13.0421 11.5163Z" fill="white"/>
</svg>
