<svg width="20" height="21" viewBox="0 0 20 21" fill="none" xmlns="http://www.w3.org/2000/svg">
<path fill-rule="evenodd" clip-rule="evenodd" d="M6.28624 17.1265C6.88124 17.1265 7.36541 17.6098 7.36541 18.2048C7.36541 18.7998 6.88124 19.284 6.28624 19.284C5.69124 19.284 5.20791 18.7998 5.20791 18.2048C5.20791 17.6098 5.69124 17.1265 6.28624 17.1265ZM15.6865 17.1265C16.2823 17.1265 16.7665 17.6098 16.7665 18.2048C16.7665 18.7998 16.2823 19.284 15.6865 19.284C15.0915 19.284 14.6082 18.7998 14.6082 18.2048C14.6082 17.6098 15.0915 17.1265 15.6865 17.1265ZM2.72308 3.00783L4.45641 3.30783C4.73558 3.357 4.94808 3.58866 4.97224 3.872L5.16808 6.20616L5.89628 6.20648C6.01511 6.20653 6.13269 6.20658 6.24901 6.20663L7.58593 6.20727C7.6925 6.20732 7.79787 6.20738 7.90207 6.20743L9.37823 6.20824C9.47097 6.20829 9.56259 6.20835 9.65312 6.2084L10.6876 6.20906C10.7695 6.20912 10.8504 6.20917 10.9303 6.20923L11.8401 6.2099C11.912 6.20996 11.9828 6.21001 12.0527 6.21007L12.846 6.21075C12.9084 6.21081 12.9699 6.21086 13.0305 6.21092L13.5519 6.21144C13.6072 6.2115 13.6617 6.21156 13.7153 6.21161L14.3191 6.21232C14.3662 6.21237 14.4125 6.21243 14.458 6.21249L14.9678 6.2132C15.0073 6.21326 15.0461 6.21332 15.0842 6.21338L15.4082 6.21392C15.4422 6.21398 15.4755 6.21405 15.5081 6.21411L15.869 6.21484C15.8966 6.2149 15.9236 6.21496 15.95 6.21502L16.1721 6.21558C16.1951 6.21564 16.2176 6.2157 16.2395 6.21576L16.4776 6.21651C16.4955 6.21658 16.5128 6.21664 16.5297 6.2167L16.6696 6.21727C16.6838 6.21734 16.6976 6.2174 16.7109 6.21747L16.8524 6.21824C16.8626 6.2183 16.8726 6.21836 16.8821 6.21843L16.9592 6.21901C16.9668 6.21908 16.9741 6.21915 16.9811 6.21921L17.0366 6.2198C17.042 6.21987 17.0471 6.21993 17.052 6.22L17.0897 6.2206C17.0933 6.22067 17.0966 6.22073 17.0998 6.2208L17.1237 6.2214C17.1259 6.22147 17.1279 6.22154 17.1298 6.22161L17.1471 6.22242C17.1482 6.22249 17.1492 6.22256 17.1501 6.22263C17.1582 6.22339 17.1594 6.22352 17.1606 6.22366C17.6247 6.29116 18.0331 6.53366 18.3114 6.907C18.5897 7.2795 18.7064 7.73866 18.6397 8.19866L17.8489 13.6637C17.6997 14.7037 16.7964 15.4878 15.7464 15.4878H6.64558C5.54808 15.4878 4.61891 14.6312 4.52974 13.5353L3.76641 4.457L2.51058 4.24033C2.16974 4.18033 1.94224 3.85783 2.00058 3.517C2.06058 3.17616 2.38974 2.9545 2.72308 3.00783ZM5.7291 7.45645L5.27308 7.45616L5.77558 13.4328C5.81224 13.8928 6.18808 14.2378 6.64724 14.2378H15.7447C16.1789 14.2378 16.5497 13.9145 16.6114 13.4853L17.4031 8.0195C17.4214 7.8895 17.3889 7.7595 17.3097 7.6545C17.2314 7.54866 17.1164 7.48033 16.9864 7.462C16.9804 7.46223 16.966 7.46244 16.9436 7.46263L16.853 7.46315C16.834 7.46322 16.8132 7.4633 16.7905 7.46336L16.3184 7.46408C16.2786 7.46411 16.2372 7.46413 16.1942 7.46416L15.0842 7.46411C15.0223 7.46409 14.9592 7.46406 14.895 7.46403L13.6282 7.46326C13.5523 7.46321 13.4756 7.46315 13.3981 7.46309L12.6813 7.46252C12.5997 7.46245 12.5174 7.46238 12.4346 7.46231L11.6754 7.46164C11.5896 7.46156 11.5035 7.46149 11.4169 7.46141L10.894 7.46093C10.8062 7.46084 10.7182 7.46076 10.63 7.46068L9.83191 7.45994C9.74292 7.45985 9.65388 7.45977 9.56484 7.45969L9.03096 7.45919C8.94212 7.45911 8.85337 7.45903 8.76478 7.45894L8.23544 7.45846C8.14765 7.45838 8.06012 7.45831 7.9729 7.45823L7.19747 7.45756C7.11254 7.45749 7.02806 7.45742 6.94409 7.45735L5.96415 7.45661C5.88507 7.45655 5.8067 7.4565 5.7291 7.45645ZM14.4063 9.28641C14.7513 9.28641 15.0313 9.56641 15.0313 9.91141C15.0313 10.2564 14.7513 10.5364 14.4063 10.5364H12.0963C11.7505 10.5364 11.4713 10.2564 11.4713 9.91141C11.4713 9.56641 11.7505 9.28641 12.0963 9.28641H14.4063Z" fill="#2F3137"/>
</svg>
