<svg width="16" height="16" viewBox="0 0 16 16" fill="none" xmlns="http://www.w3.org/2000/svg">
<g clip-path="url(#clip0_343_2839)">
<path d="M0.826652 16C0.615892 16 0.405133 15.9199 0.245004 15.7585C-0.0764596 15.4371 -0.0764596 14.9159 0.245004 14.5944L14.5983 0.241098C14.9198 -0.0803659 15.441 -0.0803659 15.7624 0.241098C16.0839 0.562561 16.0839 1.08373 15.7624 1.4054L1.4093 15.7585C1.24797 15.9189 1.03721 16 0.826652 16Z" fill="black"/>
<path d="M15.181 16C14.9702 16 14.7597 15.9199 14.5994 15.7585L0.245004 1.4054C-0.0764596 1.08373 -0.0764596 0.562561 0.245004 0.241098C0.566467 -0.0803659 1.08764 -0.0803659 1.4093 0.241098L15.7624 14.5944C16.0839 14.9159 16.0839 15.4371 15.7624 15.7585C15.6011 15.9189 15.3906 16 15.181 16Z" fill="black"/>
</g>
<defs>
<clipPath id="clip0_343_2839">
<rect width="16" height="16" fill="white"/>
</clipPath>
</defs>
</svg>
