<svg width="16" height="17" viewBox="0 0 16 17" fill="none" xmlns="http://www.w3.org/2000/svg">
<g clip-path="url(#clip0_39_219)">
<path d="M15.8631 8.14389L11.0634 2.81085C10.961 2.69779 10.8181 2.63379 10.6666 2.63379H7.46677C7.25664 2.63379 7.06572 2.75752 6.97933 2.94951C6.894 3.14256 6.92919 3.36762 7.06999 3.52334L11.5487 8.50014L7.06999 13.4759C6.92919 13.6327 6.89293 13.8577 6.97933 14.0497C7.06572 14.2428 7.25664 14.3665 7.46677 14.3665H10.6666C10.8181 14.3665 10.961 14.3014 11.0634 14.1905L15.8631 8.85745C16.0455 8.6548 16.0455 8.34548 15.8631 8.14389Z" fill="#DB6885"/>
<path d="M8.93025 8.14389L4.13051 2.81085C4.02811 2.69779 3.88519 2.63379 3.73373 2.63379H0.533904C0.323782 2.63379 0.132859 2.75752 0.0464639 2.94951C-0.0388648 3.14256 -0.00366671 3.36762 0.137126 3.52334L4.61582 8.50014L0.137126 13.4759C-0.00366671 13.6327 -0.0399314 13.8577 0.0464639 14.0497C0.132859 14.2428 0.323782 14.3665 0.533904 14.3665H3.73373C3.88519 14.3665 4.02811 14.3014 4.13051 14.1905L8.93025 8.85745C9.11264 8.6548 9.11264 8.34548 8.93025 8.14389Z" fill="#DB6885"/>
</g>
<defs>
<clipPath id="clip0_39_219">
<rect width="16" height="16" fill="white" transform="translate(0 0.5)"/>
</clipPath>
</defs>
</svg>
