<svg width="27" height="27" viewBox="0 0 27 27" fill="none" xmlns="http://www.w3.org/2000/svg">
<path d="M13.4993 23.3639L12.4049 22.3763C10.5187 20.6502 8.96159 19.1598 7.73372 17.9053C6.50586 16.6507 5.52713 15.5296 4.79753 14.542C4.06793 13.5544 3.55631 12.6602 3.2627 11.8594C2.96908 11.0586 2.82227 10.2489 2.82227 9.43035C2.82227 7.82879 3.36057 6.4897 4.43717 5.4131C5.51378 4.33649 6.84397 3.79819 8.42773 3.79819C9.44206 3.79819 10.3808 4.03842 11.2438 4.51889C12.1069 4.99936 12.8587 5.69337 13.4993 6.60092C14.2467 5.63998 15.0386 4.93263 15.875 4.47885C16.7114 4.02508 17.61 3.79819 18.571 3.79819C20.1547 3.79819 21.4849 4.33649 22.5615 5.4131C23.6381 6.4897 24.1764 7.82879 24.1764 9.43035C24.1764 10.2489 24.0296 11.0586 23.736 11.8594C23.4424 12.6602 22.9308 13.5544 22.2012 14.542C21.4716 15.5296 20.4928 16.6507 19.265 17.9053C18.0371 19.1598 16.48 20.6502 14.5937 22.3763L13.4993 23.3639Z" fill="#DB6885"/>
</svg>
