<svg width="27" height="27" viewBox="0 0 27 27" fill="none" xmlns="http://www.w3.org/2000/svg">
<path d="M13.5001 23.3639L12.4057 22.3762C10.5194 20.6501 8.96232 19.1597 7.73446 17.9052C6.50659 16.6506 5.52786 15.5295 4.79826 14.5419C4.06866 13.5543 3.55705 12.6601 3.26343 11.8593C2.96981 11.0585 2.823 10.2488 2.823 9.43026C2.823 7.82869 3.3613 6.48961 4.43791 5.413C5.51451 4.3364 6.8447 3.7981 8.42847 3.7981C9.44279 3.7981 10.3815 4.03833 11.2445 4.5188C12.1076 4.99927 12.8595 5.69328 13.5001 6.60083C14.2475 5.63989 15.0394 4.93254 15.8757 4.47876C16.7121 4.02498 17.6108 3.7981 18.5717 3.7981C20.1555 3.7981 21.4856 4.3364 22.5623 5.413C23.6389 6.48961 24.1772 7.82869 24.1772 9.43026C24.1772 10.2488 24.0304 11.0585 23.7367 11.8593C23.4431 12.6601 22.9315 13.5543 22.2019 14.5419C21.4723 15.5295 20.4936 16.6506 19.2657 17.9052C18.0378 19.1597 16.4808 20.6501 14.5945 22.3762L13.5001 23.3639ZM13.5001 21.2551C15.2974 19.6002 16.7788 18.181 17.9444 16.9976C19.11 15.8143 20.0353 14.7777 20.7205 13.8879C21.4056 12.9982 21.886 12.2063 22.1619 11.5123C22.4377 10.8183 22.5756 10.1243 22.5756 9.43026C22.5756 8.25578 22.2019 7.29039 21.4545 6.5341C20.7071 5.7778 19.7462 5.39966 18.5717 5.39966C17.6641 5.39966 16.8189 5.67993 16.0359 6.24048C15.2529 6.80103 14.6212 7.58846 14.1407 8.60278H12.8328C12.3701 7.60626 11.7473 6.82327 10.9643 6.25382C10.1813 5.68438 9.33602 5.39966 8.42847 5.39966C7.25399 5.39966 6.29305 5.7778 5.54565 6.5341C4.79826 7.29039 4.42456 8.25578 4.42456 9.43026C4.42456 10.1243 4.56247 10.8227 4.8383 11.5256C5.11412 12.2285 5.59459 13.0293 6.2797 13.928C6.96482 14.8266 7.89461 15.8632 9.06909 17.0377C10.2436 18.2122 11.7206 19.618 13.5001 21.2551Z" fill="#DB6885"/>
</svg>
