<svg width="19" height="20" viewBox="0 0 19 20" fill="none" xmlns="http://www.w3.org/2000/svg">
<path fill-rule="evenodd" clip-rule="evenodd" d="M14.9919 4.29877C15.3373 4.64409 15.6068 5.05772 15.7832 5.5132C15.9866 6.05358 16.0951 6.62503 16.104 7.20235C16.1467 7.93149 16.1467 8.16768 16.1467 10.029C16.1467 11.8903 16.1367 12.1227 16.104 12.8557C16.0926 13.4256 15.9851 13.9879 15.7847 14.5212C15.6081 14.9766 15.3385 15.3903 14.9931 15.7357C14.6477 16.0811 14.2341 16.3507 13.7787 16.5273C13.2455 16.727 12.6823 16.835 12.1131 16.8465C11.3855 16.8884 11.147 16.8884 9.28646 16.8884C7.42589 16.8884 7.19351 16.8785 6.45979 16.8465C5.88941 16.8278 5.32641 16.7118 4.79503 16.5037C4.33946 16.3274 3.92568 16.0579 3.58013 15.7127C3.23457 15.3674 2.96484 14.9538 2.78817 14.4983C2.58779 13.9643 2.48036 13.402 2.46894 12.8321C2.42627 12.1029 2.42627 11.866 2.42627 10.0054C2.42627 8.14406 2.43617 7.91168 2.46894 7.17873C2.48007 6.60946 2.58803 6.04624 2.78817 5.5132C2.96435 5.0576 3.23382 4.64386 3.57929 4.29852C3.92476 3.95318 4.3386 3.68387 4.79427 3.50787C5.32666 3.30719 5.88942 3.19896 6.45827 3.18787C7.18589 3.14673 7.42437 3.14673 9.28494 3.14673C11.1455 3.14673 11.3779 3.15587 12.1116 3.18787C12.6809 3.19956 13.2441 3.30776 13.7771 3.50787C14.2327 3.68408 14.6464 3.95346 14.9919 4.29877ZM14.6183 14.0618C14.7702 13.6498 14.8503 13.2148 14.8552 12.7757V12.7764H14.8636C14.8964 12.0481 14.8964 11.8484 14.8964 9.99244C14.8964 8.13568 14.888 7.93225 14.8552 7.20768C14.8481 6.77352 14.768 6.34364 14.6183 5.93606C14.5038 5.63973 14.3286 5.37062 14.104 5.14599C13.8793 4.92136 13.6102 4.74617 13.3139 4.63168C12.9065 4.48012 12.4761 4.39996 12.0415 4.39473C11.3047 4.35282 11.1143 4.35282 9.25751 4.35282C7.40075 4.35282 7.19732 4.36197 6.47275 4.39473C6.03848 4.4008 5.60843 4.48093 5.20113 4.63168C4.59998 4.86178 4.12379 5.33492 3.89141 5.93606C3.73953 6.34781 3.65938 6.78255 3.65446 7.22139C3.61408 7.95968 3.61408 8.14939 3.61408 10.0062C3.61408 11.8622 3.6217 12.0663 3.65446 12.7902C3.66155 13.2243 3.74166 13.6542 3.89141 14.0618C4.00633 14.3586 4.18229 14.628 4.4079 14.8526C4.63351 15.0772 4.90375 15.2519 5.20113 15.3654C5.60823 15.5169 6.03841 15.597 6.47275 15.6023C7.21027 15.6442 7.39999 15.6443 9.25751 15.6443C11.1135 15.6443 11.3177 15.6359 12.0415 15.6023C12.4761 15.5967 12.9064 15.5166 13.3139 15.3654C13.6102 15.2511 13.8794 15.0761 14.104 14.8516C14.3287 14.6271 14.5039 14.3581 14.6183 14.0618ZM12.944 7.1696C13.3976 7.1696 13.7654 6.80188 13.7654 6.34827C13.7654 5.89466 13.3976 5.52694 12.944 5.52694C12.4904 5.52694 12.1227 5.89466 12.1227 6.34827C12.1227 6.80188 12.4904 7.1696 12.944 7.1696ZM9.28116 6.47783C8.34679 6.47783 7.45069 6.84901 6.78999 7.50971C6.12929 8.17041 5.75811 9.06651 5.75811 10.0009C5.75811 10.9352 6.12929 11.8313 6.78999 12.492C7.45069 13.1527 8.34679 13.5239 9.28116 13.5239C10.2155 13.5239 11.1116 13.1527 11.7723 12.492C12.433 11.8313 12.8042 10.9352 12.8042 10.0009C12.8042 9.06651 12.433 8.17041 11.7723 7.50971C11.1116 6.84901 10.2155 6.47783 9.28116 6.47783ZM9.28116 12.2889C8.67414 12.2889 8.09199 12.0477 7.66276 11.6185C7.23354 11.1893 6.9924 10.6071 6.9924 10.0001C6.9924 9.3931 7.23354 8.81094 7.66276 8.38172C8.09199 7.95249 8.67414 7.71135 9.28116 7.71135C9.88818 7.71135 10.4703 7.95249 10.8996 8.38172C11.3288 8.81094 11.5699 9.3931 11.5699 10.0001C11.5699 10.6071 11.3288 11.1893 10.8996 11.6185C10.4703 12.0477 9.88818 12.2889 9.28116 12.2889Z" fill="white"/>
</svg>
