<svg width="20" height="20" viewBox="0 0 20 20" fill="none" xmlns="http://www.w3.org/2000/svg">
<path fill-rule="evenodd" clip-rule="evenodd" d="M13.879 1.6665C16.654 1.6665 18.7465 3.93067 18.7465 6.93317V12.6565C18.7465 14.1932 18.2032 15.5815 17.2157 16.5665C16.3298 17.449 15.1807 17.9165 13.8923 17.9165H5.6815C4.39567 17.9165 3.24733 17.4498 2.36067 16.5665C1.37317 15.5815 0.829834 14.1932 0.829834 12.6565V6.93317C0.829834 3.93067 2.92233 1.6665 5.69733 1.6665H13.879ZM13.879 2.9165H5.69733C3.6015 2.9165 2.07983 4.60567 2.07983 6.93317V12.6565C2.07983 13.859 2.49317 14.9332 3.24317 15.6807C3.88983 16.3265 4.734 16.6665 5.684 16.6665H13.879C13.8807 16.6648 13.8873 16.6665 13.8923 16.6665C14.8432 16.6665 15.6865 16.3265 16.3332 15.6807C17.084 14.9332 17.4965 13.859 17.4965 12.6565V6.93317C17.4965 4.60567 15.9748 2.9165 13.879 2.9165ZM15.1923 6.77384C15.4098 7.04134 15.369 7.43467 15.1015 7.653L11.3982 10.663C10.9298 11.0347 10.3698 11.2205 9.81067 11.2205C9.25317 11.2205 8.69733 11.0363 8.23233 10.668L4.49483 7.65467C4.22567 7.438 4.184 7.04384 4.39983 6.7755C4.61733 6.508 5.01067 6.4655 5.279 6.68134L9.01317 9.69134C9.48233 10.063 10.1432 10.063 10.6157 9.688L14.3123 6.683C14.5807 6.46384 14.974 6.5055 15.1923 6.77384Z" fill="white"/>
</svg>
