<svg width="20" height="20" viewBox="0 0 20 20" fill="none" xmlns="http://www.w3.org/2000/svg">
<path fill-rule="evenodd" clip-rule="evenodd" d="M9.99666 1.6665C14.5917 1.6665 18.33 5.40484 18.33 9.99984C18.33 14.5948 14.5917 18.3332 9.99666 18.3332C5.40166 18.3332 1.66333 14.5948 1.66333 9.99984C1.66333 5.40484 5.40166 1.6665 9.99666 1.6665ZM9.99666 2.9165C6.09083 2.9165 2.91333 6.094 2.91333 9.99984C2.91333 13.9057 6.09083 17.0832 9.99666 17.0832C13.9025 17.0832 17.08 13.9057 17.08 9.99984C17.08 6.094 13.9025 2.9165 9.99666 2.9165ZM9.71433 5.91267C10.0602 5.91267 10.3393 6.19267 10.3393 6.53767V10.2227L13.1768 11.9143C13.4727 12.0918 13.5702 12.4752 13.3935 12.7718C13.276 12.9677 13.0685 13.0768 12.856 13.0768C12.7468 13.0768 12.6368 13.0485 12.536 12.9893L9.39433 11.1152C9.206 11.0018 9.08933 10.7977 9.08933 10.5777V6.53767C9.08933 6.19267 9.36933 5.91267 9.71433 5.91267Z" fill="white"/>
</svg>
